<?xml version="1.0" encoding="UTF-8" standalone="no"?>
<svg
   xmlns:dc="http://purl.org/dc/elements/1.1/"
   xmlns:cc="http://creativecommons.org/ns#"
   xmlns:rdf="http://www.w3.org/1999/02/22-rdf-syntax-ns#"
   xmlns:svg="http://www.w3.org/2000/svg"
   xmlns="http://www.w3.org/2000/svg"
   viewBox="0 0 37.793201 37.794456"
   height="37.794456"
   width="37.793201"
   version="1.1"
   id="svg3336">
  <metadata
     id="metadata3342">
    <rdf:RDF>
      <cc:Work
         rdf:about="">
        <dc:format>image/svg+xml</dc:format>
        <dc:type
           rdf:resource="http://purl.org/dc/dcmitype/StillImage" />
        <dc:title></dc:title>
      </cc:Work>
    </rdf:RDF>
  </metadata>
  <defs
     id="defs3340" />
  <path
     id="path3346"
     d="M 10.049606,35.825578 C -2.4006626,29.500499 -3.5355776,10.851475 8.0626734,3.1761155 13.684071,-0.54394955 21.279942,-1.0388145 27.386254,1.9172005 40.162123,8.1018915 41.470083,26.86444 29.669752,34.673533 c -5.561854,3.680661 -13.701994,4.15863 -19.620146,1.152045 z m 15.410326,-1.807091 c 10.937224,-4.967441 13.441261,-18.283813 5.021401,-26.7036685 -6.707461,-6.70746105 -16.492539,-6.70746105 -23.1999996,0 -8.419856,8.4198555 -5.915823,21.7362275 5.0214006,26.7036685 5.136862,2.333046 8.020336,2.333046 13.157198,0 z M 21.0775,22.617211 c -2.948973,-3.042568 -3.196167,-3.815975 -3.196167,-10 0,-3.8015945 0.4328,-6.7023925 1,-6.7023925 0.561063,0 1,2.77097 1,6.3129085 0,5.708969 0.287002,6.587874 3,9.187091 2.956531,2.832536 3.770315,4.5 2.196167,4.5 -0.442108,0 -2.242108,-1.483923 -4,-3.297607 z"
     style="fill:#181818" />
</svg>
