<?xml version="1.0" encoding="UTF-8" standalone="no"?>
<svg
   xmlns:dc="http://purl.org/dc/elements/1.1/"
   xmlns:cc="http://creativecommons.org/ns#"
   xmlns:rdf="http://www.w3.org/1999/02/22-rdf-syntax-ns#"
   xmlns:svg="http://www.w3.org/2000/svg"
   xmlns="http://www.w3.org/2000/svg"
   viewBox="0 0 40 37.994469"
   height="37.994469"
   width="40"
   version="1.1"
   id="svg3396">
  <metadata
     id="metadata3402">
    <rdf:RDF>
      <cc:Work
         rdf:about="">
        <dc:format>image/svg+xml</dc:format>
        <dc:type
           rdf:resource="http://purl.org/dc/dcmitype/StillImage" />
        <dc:title></dc:title>
      </cc:Work>
    </rdf:RDF>
  </metadata>
  <defs
     id="defs3400" />
  <path
     id="path3406"
     d="m 10.25,36.744468 c 0.587651,-1.762953 18.912349,-1.762953 19.5,0 0.315118,0.945355 -2.061111,1.25 -9.75,1.25 -7.688889,0 -10.065118,-0.304645 -9.75,-1.25 z M 14,33.064019 c 0,-0.511747 1.0125,-1.074247 2.25,-1.25 1.858456,-0.263943 2.302525,-1.038966 2.551835,-4.453656 0.276463,-3.786596 0.0551,-4.220118 -2.633439,-5.157347 -1.6144,-0.562783 -4.225226,-2.639922 -5.801835,-4.615865 C 8.789953,15.611208 6.917045,13.994514 6.204546,13.994497 3.755979,13.994442 0,9.1906001 0,6.0589751 0,3.5645851 0.483424,2.9307091 2.75,2.4531171 4.2625,2.1344171 6.281394,1.4508431 7.236431,0.93406512 9.605932,-0.34809088 32,-0.29346688 32,0.99446812 32,1.5444681 33.088196,1.9944681 34.418213,1.9944681 38.586856,1.9944681 40,3.0457441 40,6.1469111 c 0,3.080593 -3.80655,7.8475569 -6.266487,7.8475569 -0.746568,0 -2.371144,1.371168 -3.610169,3.047039 -1.239026,1.675871 -3.819957,3.794377 -5.735404,4.707789 -3.22728,1.538983 -3.460828,1.95713 -3.185285,5.702961 0.244282,3.320859 0.698868,4.099236 2.547345,4.361762 4.639414,0.658902 2.022613,2.180449 -3.75,2.180449 -3.3,0 -6,-0.418702 -6,-0.930449 z M 25.872699,17.89844 C 28.744364,15.223077 30,11.885991 30,6.9293681 l 0,-3.9349 -10,0 -10,0 0,4.54966 c 0,4.9699969 2.00609,9.7720609 4.749978,11.3702289 3.035763,1.768168 8.688549,1.251859 11.122721,-1.015917 z M 7,7.9944681 c 0,-2.333333 -0.444444,-3 -2,-3 -2.255046,0 -2.732896,2.867104 -0.8,4.8 1.945214,1.9452139 2.8,1.3957089 2.8,-1.8 z m 28.8,1.8 c 1.932896,-1.932896 1.455046,-4.8 -0.8,-4.8 -1.1,0 -2,0.638196 -2,1.418213 0,0.780016 -0.273145,2.130016 -0.606989,2.999999 -0.725666,1.8910549 1.633368,2.1554089 3.406989,0.381788 z"
     style="fill:#191919" />
</svg>
