<?xml version="1.0" encoding="UTF-8" standalone="no"?>
<svg
   xmlns:dc="http://purl.org/dc/elements/1.1/"
   xmlns:cc="http://creativecommons.org/ns#"
   xmlns:rdf="http://www.w3.org/1999/02/22-rdf-syntax-ns#"
   xmlns:svg="http://www.w3.org/2000/svg"
   xmlns="http://www.w3.org/2000/svg"
   viewBox="0 0 38.030415 37.732464"
   height="37.732464"
   width="38.030415"
   version="1.1"
   id="svg3356">
  <metadata
     id="metadata3362">
    <rdf:RDF>
      <cc:Work
         rdf:about="">
        <dc:format>image/svg+xml</dc:format>
        <dc:type
           rdf:resource="http://purl.org/dc/dcmitype/StillImage" />
        <dc:title></dc:title>
      </cc:Work>
    </rdf:RDF>
  </metadata>
  <defs
     id="defs3360" />
  <path
     id="path3366"
     d="m 0.85653275,37.263017 c -1.8542404,-1.85424 -0.5603099,-5.375618 2.55705365,-6.958915 5.588835,-2.838546 5.869982,-3.267998 4.223664,-6.451626 -1.498928,-2.898607 -1.98017,-10.465563 -0.852483,-13.40427 0.810447,-2.1119887 5.5778336,-4.5448017 8.9060816,-4.5448017 1.569732,0 3.802734,1.17615 5.54966,2.923077 2.333205,2.3332047 2.921834,3.7962427 2.916916,7.2499997 -0.0034,2.379808 -0.678388,5.615861 -1.5,7.19123 -0.821611,1.575369 -1.493839,3.173199 -1.493839,3.550734 0,0.377535 2.054091,1.684382 4.564646,2.904104 3.960024,1.923928 4.522968,2.579495 4.25,4.949266 l -0.314646,2.731589 -14.057054,0.27628 C 7.8751534,37.831637 1.2376532,37.644137 0.85653275,37.263017 Z M 27.163586,34.646122 c 0,-0.691505 -2.025,-2.480426 -4.5,-3.975381 -4.795959,-2.896865 -5.301222,-4.123931 -2.968197,-7.208467 2.014459,-2.663352 1.956629,-11.908618 -0.08509,-13.6030917 -2.239629,-1.858727 -7.094308,-1.584678 -9.433811,0.5325427 -2.4072036,2.17849 -2.6707196,7.823434 -0.5373836,11.511679 0.7953196,1.375 1.7637266,3.132591 2.1520156,3.905758 0.755697,1.504755 -1.191234,3.378369 -6.5828056,6.334912 -1.7458635,0.957369 -2.8935873,2.194869 -2.5504972,2.75 0.9702575,1.56991 24.5057658,1.331775 24.5057658,-0.247952 z m 4.535419,-3.685408 c -0.376049,-0.608461 0.195587,-1.05731 1.346547,-1.05731 3.3778,0 3.415368,-1.926662 0.0733,-3.75933 -1.745864,-0.957368 -4.074534,-2.437411 -5.174823,-3.288984 -1.997738,-1.546156 -1.997585,-1.5538 0.109514,-5.485191 C 33.345526,7.4962123 28.87574,0.80198532 18.663586,3.3069133 l -3,0.735867 2.360784,-2.069688 c 3.198249,-2.80388998 7.344484,-2.60929098 11.062491,0.519206 2.674243,2.250227 3.076725,3.237836 3.076725,7.5496597 0,2.728421 -0.708181,6.330238 -1.573736,8.004036 -0.865555,1.673799 -1.428055,3.171138 -1.25,3.327421 0.178055,0.156282 2.263883,1.262713 4.635173,2.458736 3.676981,1.854582 4.265607,2.571663 4,4.87292 -0.239848,2.078076 -0.921863,2.768973 -2.967001,3.005643 -1.46056,0.16902 -2.949617,-0.16848 -3.309017,-0.75 z"
     style="fill:#151515" />
</svg>
