<?xml version="1.0" encoding="UTF-8" standalone="no"?>
<svg
   xmlns:dc="http://purl.org/dc/elements/1.1/"
   xmlns:cc="http://creativecommons.org/ns#"
   xmlns:rdf="http://www.w3.org/1999/02/22-rdf-syntax-ns#"
   xmlns:svg="http://www.w3.org/2000/svg"
   xmlns="http://www.w3.org/2000/svg"
   viewBox="0 0 31.980078 32"
   height="32"
   width="31.980078"
   version="1.1"
   id="svg3376">
  <metadata
     id="metadata3382">
    <rdf:RDF>
      <cc:Work
         rdf:about="">
        <dc:format>image/svg+xml</dc:format>
        <dc:type
           rdf:resource="http://purl.org/dc/dcmitype/StillImage" />
        <dc:title></dc:title>
      </cc:Work>
    </rdf:RDF>
  </metadata>
  <defs
     id="defs3380" />
  <path
     id="path3386"
     d="M 0,29.5 C 0,26.681375 3.5254655,22.588688 5.109918,23.567933 5.729331,23.950751 5.311974,24.793611 4.0734435,25.661112 1.6937091,27.327942 1.3056396,30 3.443296,30 4.2371088,30 5.540125,29.06695 6.338888,27.926556 7.206389,26.688026 8.049249,26.270669 8.432067,26.890082 9.411312,28.474535 5.318625,32 2.5,32 0.5,32 0,31.5 0,29.5 Z m 12,0.732135 C 12,26.667771 7.278893,21.274902 3.5453549,20.574486 1.5954097,20.208675 0,19.558206 0,19.129001 0,17.379425 4.8059949,14 7.294127,14 9.365408,14 10.387893,13.164315 11.882358,10.25 15.447293,3.298119 20.872632,0 28.743398,0 c 3.168075,0 3.256005,0.115532 3.23464,4.25 -0.03667,7.096504 -3.051402,12.246746 -8.905043,15.213011 C 18.789863,21.633438 18,22.471027 18,24.842532 18,26.485611 17.039427,28.553783 15.685549,29.825686 12.879011,32.462291 12,32.55923 12,30.232135 Z m 4,-5.695693 c 0,-3.009012 0.548812,-3.655255 5.456146,-6.424783 6.180227,-3.487904 7.305578,-5.094105 8.214338,-11.7242303 L 30.313761,1.694211 25.90688,2.374921 C 20.169736,3.26111 17.06798,5.5825185 14.015744,11.274456 11.886341,15.245455 11.040338,15.949538 8.093044,16.2036 4.4514639,16.517511 2.4140311,19 5.797978,19 c 1.923938,0 6.191963,4.719208 7.518576,8.313382 C 14.328025,30.053747 16,28.323519 16,24.536442 Z M 19.039869,12.548039 C 16.383413,9.347205 20.285103,4.4302672 23.75,6.6122981 c 2.221731,1.3991429 2.764729,4.0625659 1.210131,5.9357409 -1.54461,1.861141 -4.375652,1.861141 -5.920262,0 z m 4.513982,-1.635171 c 1.030521,-1.667419 -1.287209,-3.5795095 -2.666719,-2.2 C 19.733208,9.866792 20.455411,12 22,12 c 0.485081,0 1.184314,-0.48921 1.553851,-1.087132 z"
     style="fill:#191919" />
</svg>
